<?xml version="1.0" encoding="UTF-8" standalone="no"?>
<!-- Created with Inkscape (http://www.inkscape.org/) -->

<svg
   xmlns:dc="http://purl.org/dc/elements/1.1/"
   xmlns:cc="http://creativecommons.org/ns#"
   xmlns:rdf="http://www.w3.org/1999/02/22-rdf-syntax-ns#"
   xmlns:svg="http://www.w3.org/2000/svg"
   xmlns="http://www.w3.org/2000/svg"
   xmlns:sodipodi="http://sodipodi.sourceforge.net/DTD/sodipodi-0.dtd"
   xmlns:inkscape="http://www.inkscape.org/namespaces/inkscape"
   width="207.89899mm"
   height="141.27069mm"
   viewBox="0 0 736.64997 500.56543"
   id="svg4148"
   version="1.1"
   inkscape:version="0.91 r13725"
   sodipodi:docname="data-munging-pep.svg">
  <defs
     id="defs4150" />
  <sodipodi:namedview
     id="base"
     pagecolor="#ffffff"
     bordercolor="#666666"
     borderopacity="1.0"
     inkscape:pageopacity="0.0"
     inkscape:pageshadow="2"
     inkscape:zoom="0.5"
     inkscape:cx="650.95916"
     inkscape:cy="-471.15948"
     inkscape:document-units="px"
     inkscape:current-layer="layer1"
     showgrid="false"
     fit-margin-top="5"
     fit-margin-left="5"
     fit-margin-right="5"
     fit-margin-bottom="5" />
  <metadata
     id="metadata4153">
    <rdf:RDF>
      <cc:Work
         rdf:about="">
        <dc:format>image/svg+xml</dc:format>
        <dc:type
           rdf:resource="http://purl.org/dc/dcmitype/StillImage" />
        <dc:title></dc:title>
      </cc:Work>
    </rdf:RDF>
  </metadata>
  <g
     inkscape:label="Layer 1"
     inkscape:groupmode="layer"
     id="layer1"
     transform="translate(-262.51826,1057.6599)">
    <g
       transform="translate(-761.33629,2.28273)"
       id="g4416">
      <path
         id="path4186"
         d="m 1272.4655,-663.59598 -9.2166,0 c -1.2728,0 -2.3041,1.03132 -2.3041,2.30412 l 0,2.30414 -9.2165,0 c -16.5161,0 -29.9538,13.43677 -29.9538,29.95372 l 0,13.82479 c 0,3.81197 -3.1004,6.9124 -6.9124,6.9124 l -9.2165,0 0,-2.30412 c 0,-1.2728 -1.0313,-2.30414 -2.3041,-2.30414 l -9.2165,0 c -1.2729,0 -2.3042,1.03134 -2.3042,2.30414 l 0,27.64958 c 0,1.2728 1.0313,2.30414 2.3042,2.30414 l 9.2165,0 c 1.2728,0 2.3041,-1.03134 2.3041,-2.30414 l 0,-2.30412 9.2165,0 c 16.5161,0 29.9538,-13.43679 29.9538,-29.95374 l 0,-13.82479 c 0,-3.81195 3.1004,-6.9124 6.9124,-6.9124 l 9.2165,0 0,2.30414 c 0,1.2728 1.0313,2.30413 2.3041,2.30413 l 9.2166,0 c 1.2728,0 2.3041,-1.03133 2.3041,-2.30413 l 0,-27.6496 c 0,-1.2728 -1.0313,-2.30412 -2.3041,-2.30412 z m -71.4282,57.60331 0,18.43305 0,2.30415 -4.6082,0 0,-23.04134 4.6082,0 0,2.30414 z m 59.9075,-34.56199 -9.2165,0 c -6.353,0 -11.5207,5.1677 -11.5207,11.52066 l 0,13.82479 c 0,13.97504 -11.3695,25.34547 -25.3455,25.34547 l -9.2165,0 0,-13.8248 9.2165,0 c 6.353,0 11.5207,-5.16772 11.5207,-11.52067 l 0,-13.82479 c 0,-13.97502 11.3695,-25.34546 25.3455,-25.34546 l 9.2165,0 0,13.8248 z m 9.2165,4.60826 -4.6082,0 0,-2.30413 0,-18.43306 0,-2.30413 4.6082,0 0,23.04132 z"
         inkscape:connector-curvature="0"
         style="color:#000000;clip-rule:nonzero;display:inline;overflow:visible;visibility:visible;opacity:1;isolation:auto;mix-blend-mode:normal;color-interpolation:sRGB;color-interpolation-filters:linearRGB;solid-color:#000000;solid-opacity:1;fill:#000000;fill-opacity:1;fill-rule:nonzero;stroke-width:10;stroke-linecap:butt;stroke-linejoin:miter;stroke-miterlimit:4;stroke-dasharray:none;stroke-dashoffset:0;stroke-opacity:1;color-rendering:auto;image-rendering:auto;shape-rendering:auto;text-rendering:auto;enable-background:accumulate" />
      <path
         id="path4188"
         d="m 1131.0538,-664.51411 -9.2165,0 c -1.2728,0 -2.3042,1.03132 -2.3042,2.30412 l 0,2.30414 -9.2165,0 c -16.516,0 -29.9537,13.43678 -29.9537,29.95372 l 0,13.82479 c 0,3.81197 -3.1005,6.91241 -6.9124,6.91241 l -9.2166,0 0,-2.30413 c 0,-1.27281 -1.0313,-2.30415 -2.3041,-2.30415 l -9.2165,0 c -1.2728,0 -2.3041,1.03134 -2.3041,2.30415 l 0,27.64958 c 0,1.2728 1.0313,2.30413 2.3041,2.30413 l 9.2165,0 c 1.2728,0 2.3041,-1.03133 2.3041,-2.30413 l 0,-2.30413 9.2166,0 c 16.516,0 29.9537,-13.43679 29.9537,-29.95373 l 0,-13.82479 c 0,-3.81195 3.1004,-6.9124 6.9124,-6.9124 l 9.2165,0 0,2.30413 c 0,1.27281 1.0314,2.30413 2.3042,2.30413 l 9.2165,0 c 1.2728,0 2.3041,-1.03132 2.3041,-2.30413 l 0,-27.64959 c 0,-1.2728 -1.0313,-2.30412 -2.3041,-2.30412 z m -71.4281,57.60331 0,18.43306 0,2.30413 -4.6083,0 0,-23.04132 4.6083,0 0,2.30413 z m 59.9074,-34.56199 -9.2165,0 c -6.3529,0 -11.5207,5.1677 -11.5207,11.52066 l 0,13.82479 c 0,13.97503 -11.3695,25.34547 -25.3454,25.34547 l -9.2166,0 0,-13.8248 9.2166,0 c 6.3529,0 11.5206,-5.16772 11.5206,-11.52067 l 0,-13.82479 c 0,-13.97502 11.3696,-25.34545 25.3455,-25.34545 l 9.2165,0 0,13.82479 z m 9.2166,4.60826 -4.6083,0 0,-2.30412 0,-18.43307 0,-2.30413 4.6083,0 0,23.04132 z"
         inkscape:connector-curvature="0"
         style="color:#000000;clip-rule:nonzero;display:inline;overflow:visible;visibility:visible;opacity:1;isolation:auto;mix-blend-mode:normal;color-interpolation:sRGB;color-interpolation-filters:linearRGB;solid-color:#000000;solid-opacity:1;fill:#000000;fill-opacity:1;fill-rule:nonzero;stroke-width:10;stroke-linecap:butt;stroke-linejoin:miter;stroke-miterlimit:4;stroke-dasharray:none;stroke-dashoffset:0;stroke-opacity:1;color-rendering:auto;image-rendering:auto;shape-rendering:auto;text-rendering:auto;enable-background:accumulate" />
      <path
         style="color:#000000;clip-rule:nonzero;display:inline;overflow:visible;visibility:visible;opacity:1;isolation:auto;mix-blend-mode:normal;color-interpolation:sRGB;color-interpolation-filters:linearRGB;solid-color:#000000;solid-opacity:1;fill:#000000;fill-opacity:1;fill-rule:nonzero;stroke-width:10;stroke-linecap:butt;stroke-linejoin:miter;stroke-miterlimit:4;stroke-dasharray:none;stroke-dashoffset:0;stroke-opacity:1;color-rendering:auto;image-rendering:auto;shape-rendering:auto;text-rendering:auto;enable-background:accumulate"
         inkscape:connector-curvature="0"
         d="m 1433.3831,-661.75974 -9.2165,0 c -1.2728,0 -2.3042,1.03132 -2.3042,2.30412 l 0,2.30414 -9.2165,0 c -16.516,0 -29.9537,13.43678 -29.9537,29.95372 l 0,13.8248 c 0,3.81196 -3.1004,6.91239 -6.9124,6.91239 l -9.2165,0 0,-2.30412 c 0,-1.2728 -1.0314,-2.30414 -2.3042,-2.30414 l -9.2165,0 c -1.2728,0 -2.3041,1.03134 -2.3041,2.30414 l 0,27.64958 c 0,1.2728 1.0313,2.30414 2.3041,2.30414 l 9.2165,0 c 1.2728,0 2.3042,-1.03134 2.3042,-2.30414 l 0,-2.30413 9.2165,0 c 16.516,0 29.9537,-13.43678 29.9537,-29.95372 l 0,-13.8248 c 0,-3.81196 3.1005,-6.9124 6.9124,-6.9124 l 9.2165,0 0,2.30414 c 0,1.27281 1.0314,2.30413 2.3042,2.30413 l 9.2165,0 c 1.2728,0 2.3041,-1.03132 2.3041,-2.30413 l 0,-27.6496 c 0,-1.2728 -1.0313,-2.30412 -2.3041,-2.30412 z m -71.4281,57.60331 0,18.43305 0,2.30414 -4.6083,0 0,-23.04133 4.6083,0 0,2.30414 z m 59.9074,-34.562 -9.2165,0 c -6.3529,0 -11.5207,5.16772 -11.5207,11.52067 l 0,13.8248 c 0,13.97503 -11.3695,25.34546 -25.3454,25.34546 l -9.2165,0 0,-13.8248 9.2165,0 c 6.3529,0 11.5206,-5.16771 11.5206,-11.52066 l 0,-13.8248 c 0,-13.97502 11.3696,-25.34545 25.3455,-25.34545 l 9.2165,0 0,13.82478 z m 9.2166,4.60827 -4.6083,0 0,-2.30413 0,-18.43306 0,-2.30413 4.6083,0 0,23.04132 z"
         id="path4190" />
      <text
         xml:space="preserve"
         style="color:#000000;font-style:normal;font-variant:normal;font-weight:normal;font-stretch:normal;font-size:32.81617737px;line-height:100%;font-family:Arial;-inkscape-font-specification:'Arial, Normal';text-indent:0;text-align:start;text-decoration:none;text-decoration-line:none;text-decoration-style:solid;text-decoration-color:#000000;letter-spacing:0px;word-spacing:0px;text-transform:none;direction:ltr;block-progression:tb;writing-mode:lr-tb;baseline-shift:baseline;text-anchor:start;white-space:normal;clip-rule:nonzero;display:inline;overflow:visible;visibility:visible;opacity:1;isolation:auto;mix-blend-mode:normal;color-interpolation:sRGB;color-interpolation-filters:linearRGB;solid-color:#000000;solid-opacity:1;fill:#000000;fill-opacity:1;fill-rule:nonzero;stroke:none;stroke-width:1px;stroke-linecap:butt;stroke-linejoin:miter;stroke-miterlimit:4;stroke-dasharray:none;stroke-dashoffset:0;stroke-opacity:1;marker:none;color-rendering:auto;image-rendering:auto;shape-rendering:auto;text-rendering:auto;enable-background:accumulate"
         x="1351.5663"
         y="-918.50275"
         id="text4192"
         sodipodi:linespacing="100%"><tspan
           sodipodi:role="line"
           id="tspan4194"
           x="1351.5663"
           y="-918.50275">DATA</tspan></text>
      <g
         id="g4206"
         transform="matrix(1.1303652,0,0,1.1303652,1337.6946,-2132.2855)">
        <path
           id="path4208"
           transform="translate(0,952.36218)"
           d="m 50,14 c -7.961803,0 -15.151346,1.18703 -20.53125,3.25 -2.689952,1.03149 -4.942744,2.28229 -6.625,3.8125 C 21.161494,22.59271 20,24.53188 20,26.71875 L 20,73.25 c 0,2.1869 1.161494,4.12605 2.84375,5.65625 1.682256,1.5303 3.935048,2.781 6.625,3.8125 C 34.848654,84.78165 42.038197,86 50,86 c 7.961803,0 15.151346,-1.21835 20.53125,-3.28125 2.689952,-1.0315 4.942744,-2.2822 6.625,-3.8125 C 78.838506,77.37605 80,75.4369 80,73.25 L 80,26.71875 C 80,24.53188 78.838506,22.59271 77.15625,21.0625 75.473994,19.53229 73.221202,18.28149 70.53125,17.25 65.151346,15.18703 57.961803,14 50,14 Z m 0,4 c 7.550197,0 14.351654,1.1816 19.09375,3 2.371048,0.9092 4.231006,1.99065 5.375,3.03125 1.082929,0.985054 1.459868,1.809678 1.5,2.5625 a 2.0001999,2.0001999 0 0 0 0,0.0625 c -0.133844,0.75677 -0.70773,1.68223 -1.96875,2.6875 -1.26102,1.00527 -3.145746,2.02862 -5.5,2.875 C 63.791492,33.91151 57.232671,35 50,35 42.767329,35 36.208508,33.91151 31.5,32.21875 29.145746,31.37237 27.26102,30.34902 26,29.34375 24.73898,28.33848 24.165094,27.41302 24.03125,26.65625 a 2.0001999,2.0001999 0 0 0 0,-0.0625 c 0.04013,-0.752822 0.417071,-1.577446 1.5,-2.5625 C 26.675244,22.99065 28.535202,21.9092 30.90625,21 35.648346,19.1816 42.449803,18 50,18 Z M 24,32.8125 c 1.675409,1.232792 3.740883,2.287901 6.15625,3.15625 C 35.452514,37.87281 42.373027,39 50,39 57.626973,39 64.547486,37.87281 69.84375,35.96875 72.259117,35.100401 74.324591,34.045292 76,32.8125 l 0,9.625 a 2.0064593,2.0064593 0 0 0 -0.03125,0.15625 c -0.113976,0.75815 -0.661638,1.67628 -1.90625,2.6875 -1.244612,1.01122 -3.11136,2.05053 -5.46875,2.90625 C 63.878969,49.8989 57.280198,51 50,51 42.719802,51 36.121031,49.8989 31.40625,48.1875 29.04886,47.33178 27.182112,46.29247 25.9375,45.28125 24.692888,44.27003 24.145226,43.3519 24.03125,42.59375 A 2.0001999,2.0001999 0 0 0 24,42.40625 L 24,32.8125 Z M 32,40 c -1.104569,0 -2,0.895431 -2,2 0,1.104569 0.895431,2 2,2 1.104569,0 2,-0.895431 2,-2 0,-1.104569 -0.895431,-2 -2,-2 z m -8,8.84375 c 1.652826,1.21541 3.688321,2.231944 6.0625,3.09375 C 35.372273,53.8649 42.32292,55 50,55 57.67708,55 64.627727,53.8649 69.9375,51.9375 72.311679,51.075694 74.347174,50.05916 76,48.84375 l 0,8.59375 a 2.0064556,2.0064556 0 0 0 -0.03125,0.15625 c -0.113976,0.7581 -0.661638,1.6763 -1.90625,2.6875 -1.244612,1.0113 -3.11136,2.05055 -5.46875,2.90625 C 63.878969,64.8989 57.280198,66 50,66 42.719802,66 36.121031,64.8989 31.40625,63.1875 29.04886,62.3318 27.182112,61.29255 25.9375,60.28125 c -1.244612,-1.0112 -1.792274,-1.9294 -1.90625,-2.6875 A 2.0001999,2.0001999 0 0 0 24,57.40625 l 0,-8.5625 z M 32,56 c -1.104569,0 -2,0.895431 -2,2 0,1.104569 0.895431,2 2,2 1.104569,0 2,-0.895431 2,-2 0,-1.104569 -0.895431,-2 -2,-2 z m -8,7.84375 c 1.652826,1.21541 3.688321,2.231944 6.0625,3.09375 C 35.372273,68.8649 42.32292,70 50,70 57.67708,70 64.627727,68.8649 69.9375,66.9375 72.311679,66.075694 74.347174,65.05916 76,63.84375 L 76,73.25 c 0,0.7872 -0.387256,1.67815 -1.53125,2.71875 -1.143994,1.0405 -3.003952,2.0908 -5.375,3 C 64.351654,80.78705 57.550197,82 50,82 42.449803,82 35.648346,80.78705 30.90625,78.96875 c -2.371048,-0.9092 -4.231006,-1.9595 -5.375,-3 C 24.387256,74.92815 24,74.0372 24,73.25 l 0,-9.40625 z M 32,71 c -1.104569,0 -2,0.895431 -2,2 0,1.104569 0.895431,2 2,2 1.104569,0 2,-0.895431 2,-2 0,-1.104569 -0.895431,-2 -2,-2 z"
           style="color:#000000;font-style:normal;font-variant:normal;font-weight:normal;font-stretch:normal;font-size:medium;line-height:normal;font-family:Sans;-inkscape-font-specification:Sans;text-indent:0;text-align:start;text-decoration:none;text-decoration-line:none;letter-spacing:normal;word-spacing:normal;text-transform:none;direction:ltr;block-progression:tb;writing-mode:lr-tb;baseline-shift:baseline;text-anchor:start;display:inline;overflow:visible;visibility:visible;opacity:1;fill:#000000;fill-opacity:1;stroke:none;stroke-width:3.99999976;marker:none;enable-background:accumulate"
           inkscape:connector-curvature="0" />
      </g>
      <path
         id="path4210"
         d="m 1583.2401,-661.75974 -9.2165,0 c -1.2728,0 -2.3041,1.03132 -2.3041,2.30412 l 0,2.30414 -9.2166,0 c -16.516,0 -29.9537,13.43678 -29.9537,29.95372 l 0,13.8248 c 0,3.81196 -3.1004,6.91239 -6.9124,6.91239 l -9.2165,0 0,-2.30412 c 0,-1.2728 -1.0313,-2.30414 -2.3042,-2.30414 l -9.2165,0 c -1.2728,0 -2.3041,1.03134 -2.3041,2.30414 l 0,27.64958 c 0,1.2728 1.0313,2.30414 2.3041,2.30414 l 9.2165,0 c 1.2729,0 2.3042,-1.03134 2.3042,-2.30414 l 0,-2.30413 9.2165,0 c 16.516,0 29.9537,-13.43678 29.9537,-29.95372 l 0,-13.8248 c 0,-3.81196 3.1005,-6.9124 6.9124,-6.9124 l 9.2166,0 0,2.30414 c 0,1.27281 1.0313,2.30413 2.3041,2.30413 l 9.2165,0 c 1.2728,0 2.3041,-1.03132 2.3041,-2.30413 l 0,-27.6496 c 0,-1.2728 -1.0313,-2.30412 -2.3041,-2.30412 z m -71.4281,57.60331 0,18.43305 0,2.30414 -4.6083,0 0,-23.04133 4.6083,0 0,2.30414 z m 59.9075,-34.562 -9.2166,0 c -6.3529,0 -11.5206,5.16772 -11.5206,11.52067 l 0,13.8248 c 0,13.97503 -11.3696,25.34546 -25.3455,25.34546 l -9.2165,0 0,-13.8248 9.2165,0 c 6.353,0 11.5207,-5.16771 11.5207,-11.52066 l 0,-13.8248 c 0,-13.97502 11.3695,-25.34545 25.3454,-25.34545 l 9.2166,0 0,13.82478 z m 9.2165,4.60827 -4.6083,0 0,-2.30413 0,-18.43306 0,-2.30413 4.6083,0 0,23.04132 z"
         inkscape:connector-curvature="0"
         style="color:#000000;clip-rule:nonzero;display:inline;overflow:visible;visibility:visible;opacity:1;isolation:auto;mix-blend-mode:normal;color-interpolation:sRGB;color-interpolation-filters:linearRGB;solid-color:#000000;solid-opacity:1;fill:#000000;fill-opacity:1;fill-rule:nonzero;stroke-width:10;stroke-linecap:butt;stroke-linejoin:miter;stroke-miterlimit:4;stroke-dasharray:none;stroke-dashoffset:0;stroke-opacity:1;color-rendering:auto;image-rendering:auto;shape-rendering:auto;text-rendering:auto;enable-background:accumulate" />
      <path
         style="color:#000000;clip-rule:nonzero;display:inline;overflow:visible;visibility:visible;opacity:1;isolation:auto;mix-blend-mode:normal;color-interpolation:sRGB;color-interpolation-filters:linearRGB;solid-color:#000000;solid-opacity:1;fill:#000000;fill-opacity:1;fill-rule:nonzero;stroke-width:10;stroke-linecap:butt;stroke-linejoin:miter;stroke-miterlimit:4;stroke-dasharray:none;stroke-dashoffset:0;stroke-opacity:1;color-rendering:auto;image-rendering:auto;shape-rendering:auto;text-rendering:auto;enable-background:accumulate"
         inkscape:connector-curvature="0"
         d="m 1726.9957,-661.75974 -9.2165,0 c -1.2728,0 -2.3041,1.03132 -2.3041,2.30412 l 0,2.30414 -9.2166,0 c -16.516,0 -29.9537,13.43678 -29.9537,29.95372 l 0,13.8248 c 0,3.81196 -3.1004,6.91239 -6.9124,6.91239 l -9.2165,0 0,-2.30412 c 0,-1.2728 -1.0313,-2.30414 -2.3041,-2.30414 l -9.2166,0 c -1.2728,0 -2.3041,1.03134 -2.3041,2.30414 l 0,27.64958 c 0,1.2728 1.0313,2.30414 2.3041,2.30414 l 9.2166,0 c 1.2728,0 2.3041,-1.03134 2.3041,-2.30414 l 0,-2.30413 9.2165,0 c 16.516,0 29.9538,-13.43678 29.9538,-29.95372 l 0,-13.8248 c 0,-3.81196 3.1004,-6.9124 6.9123,-6.9124 l 9.2166,0 0,2.30414 c 0,1.27281 1.0313,2.30413 2.3041,2.30413 l 9.2165,0 c 1.2728,0 2.3042,-1.03132 2.3042,-2.30413 l 0,-27.6496 c 0,-1.2728 -1.0314,-2.30412 -2.3042,-2.30412 z m -71.4281,57.60331 0,18.43305 0,2.30414 -4.6082,0 0,-23.04133 4.6082,0 0,2.30414 z m 59.9075,-34.562 -9.2166,0 c -6.3529,0 -11.5206,5.16772 -11.5206,11.52067 l 0,13.8248 c 0,13.97503 -11.3695,25.34546 -25.3455,25.34546 l -9.2165,0 0,-13.8248 9.2165,0 c 6.353,0 11.5207,-5.16771 11.5207,-11.52066 l 0,-13.8248 c 0,-13.97502 11.3695,-25.34545 25.3454,-25.34545 l 9.2166,0 0,13.82478 z m 9.2165,4.60827 -4.6082,0 0,-2.30413 0,-18.43306 0,-2.30413 4.6082,0 0,23.04132 z"
         id="path4212" />
      <path
         sodipodi:type="star"
         style="color:#000000;clip-rule:nonzero;display:inline;overflow:visible;visibility:visible;opacity:1;isolation:auto;mix-blend-mode:normal;color-interpolation:sRGB;color-interpolation-filters:linearRGB;solid-color:#000000;solid-opacity:1;fill:#000000;fill-opacity:1;fill-rule:nonzero;stroke:#000000;stroke-width:11.37734222;stroke-linecap:butt;stroke-linejoin:miter;stroke-miterlimit:4;stroke-dasharray:none;stroke-dashoffset:0;stroke-opacity:1;marker:none;color-rendering:auto;image-rendering:auto;shape-rendering:auto;text-rendering:auto;enable-background:accumulate"
         id="path4221"
         sodipodi:sides="3"
         sodipodi:cx="-550"
         sodipodi:cy="-1215.6378"
         sodipodi:r1="67.201187"
         sodipodi:r2="33.600594"
         sodipodi:arg1="1.0471976"
         sodipodi:arg2="2.0943952"
         inkscape:flatsided="false"
         inkscape:rounded="-3.46945e-18"
         inkscape:randomized="0"
         d="m -516.39941,-1157.4399 -50.40089,-29.099 -50.40089,-29.0989 50.4009,-29.099 50.40089,-29.099 -10e-6,58.198 z"
         inkscape:transform-center-x="-1.2607219"
         inkscape:transform-center-y="3.532193"
         transform="matrix(0.15987377,0.09118859,0.09230317,-0.15794328,1594.3506,-1012.2749)" />
      <path
         transform="matrix(0.15987377,0.09118859,0.09230317,-0.15794328,1594.3506,-831.98876)"
         inkscape:transform-center-y="3.5322424"
         inkscape:transform-center-x="-1.2607219"
         d="m -516.39941,-1157.4399 -50.40089,-29.099 -50.40089,-29.0989 50.4009,-29.099 50.40089,-29.099 -10e-6,58.198 z"
         inkscape:randomized="0"
         inkscape:rounded="-3.46945e-18"
         inkscape:flatsided="false"
         sodipodi:arg2="2.0943952"
         sodipodi:arg1="1.0471976"
         sodipodi:r2="33.600594"
         sodipodi:r1="67.201187"
         sodipodi:cy="-1215.6378"
         sodipodi:cx="-550"
         sodipodi:sides="3"
         id="path4227"
         style="color:#000000;clip-rule:nonzero;display:inline;overflow:visible;visibility:visible;opacity:1;isolation:auto;mix-blend-mode:normal;color-interpolation:sRGB;color-interpolation-filters:linearRGB;solid-color:#000000;solid-opacity:1;fill:#000000;fill-opacity:1;fill-rule:nonzero;stroke:#000000;stroke-width:11.37734222;stroke-linecap:butt;stroke-linejoin:miter;stroke-miterlimit:4;stroke-dasharray:none;stroke-dashoffset:0;stroke-opacity:1;marker:none;color-rendering:auto;image-rendering:auto;shape-rendering:auto;text-rendering:auto;enable-background:accumulate"
         sodipodi:type="star" />
      <path
         style="color:#000000;clip-rule:nonzero;display:inline;overflow:visible;visibility:visible;opacity:1;isolation:auto;mix-blend-mode:normal;color-interpolation:sRGB;color-interpolation-filters:linearRGB;solid-color:#000000;solid-opacity:1;fill:none;fill-opacity:1;fill-rule:evenodd;stroke:#000000;stroke-width:2.77253485;stroke-linecap:butt;stroke-linejoin:miter;stroke-miterlimit:4;stroke-dasharray:none;stroke-dashoffset:0;stroke-opacity:1;color-rendering:auto;image-rendering:auto;shape-rendering:auto;text-rendering:auto;enable-background:accumulate"
         d="m 1396.5183,-903.87644 0,29.02363"
         id="path4229"
         inkscape:connector-curvature="0" />
      <path
         inkscape:connector-curvature="0"
         id="path4239"
         d="m 1394.2128,-726.1168 0,31.55007"
         style="color:#000000;clip-rule:nonzero;display:inline;overflow:visible;visibility:visible;opacity:1;isolation:auto;mix-blend-mode:normal;color-interpolation:sRGB;color-interpolation-filters:linearRGB;solid-color:#000000;solid-opacity:1;fill:none;fill-opacity:1;fill-rule:evenodd;stroke:#000000;stroke-width:3.13141513;stroke-linecap:butt;stroke-linejoin:miter;stroke-miterlimit:4;stroke-dasharray:none;stroke-dashoffset:0;stroke-opacity:1;color-rendering:auto;image-rendering:auto;shape-rendering:auto;text-rendering:auto;enable-background:accumulate"
         sodipodi:nodetypes="cc" />
      <path
         style="color:#000000;clip-rule:nonzero;display:inline;overflow:visible;visibility:visible;opacity:1;isolation:auto;mix-blend-mode:normal;color-interpolation:sRGB;color-interpolation-filters:linearRGB;solid-color:#000000;solid-opacity:1;fill:#9cb4b0;fill-opacity:1;fill-rule:evenodd;stroke:#000000;stroke-width:1.043805;stroke-linecap:butt;stroke-linejoin:miter;stroke-miterlimit:4;stroke-dasharray:none;stroke-dashoffset:0;stroke-opacity:1;marker:none;color-rendering:auto;image-rendering:auto;shape-rendering:auto;text-rendering:auto;enable-background:accumulate"
         d="m 1064.3832,-597.67266 0,-6.31001 5.4376,0 c 2.9906,0 6.8127,-0.57459 8.4934,-1.27685 5.3323,-2.22796 6.2855,-4.79083 6.8844,-18.51023 0.6,-13.74174 1.4984,-16.72368 6.816,-22.62205 5.1963,-5.76379 10.8483,-8.05143 19.9191,-8.06217 l 7.4368,-0.009 0,6.31001 0,6.31002 -6.0847,0.003 c -6.928,0.004 -11.0154,1.882 -13.1476,6.04142 -0.8492,1.65661 -1.4238,6.53032 -1.6784,14.23743 -0.3462,10.47783 -0.6398,12.20897 -2.7729,16.35001 -4.7619,9.24401 -12.9749,13.84791 -24.7035,13.84791 l -6.6002,0 0,-6.31001 z"
         id="path4249"
         inkscape:connector-curvature="0" />
      <path
         style="color:#000000;clip-rule:nonzero;display:inline;overflow:visible;visibility:visible;opacity:1;isolation:auto;mix-blend-mode:normal;color-interpolation:sRGB;color-interpolation-filters:linearRGB;solid-color:#000000;solid-opacity:1;fill:#c8dcb8;fill-opacity:1;fill-rule:evenodd;stroke:none;stroke-width:2;stroke-linecap:butt;stroke-linejoin:miter;stroke-miterlimit:4;stroke-dasharray:none;stroke-dashoffset:0;stroke-opacity:1;marker:none;color-rendering:auto;image-rendering:auto;shape-rendering:auto;text-rendering:auto;enable-background:accumulate"
         d="m 1205.9078,-596.77122 0,-6.31002 5.4977,0 c 6.6241,0 11.1992,-1.95615 13.5354,-5.78715 1.3866,-2.27383 1.6937,-4.5826 1.6964,-12.75392 0,-12.4725 1.4358,-17.62028 6.5002,-23.37376 5.4732,-6.21778 11.0011,-8.54543 20.3208,-8.55647 l 7.4368,-0.009 0,6.31001 0,6.31002 -6.0847,0.003 c -4.44,0.002 -6.8633,0.47811 -8.9653,1.75982 -4.8568,2.96134 -5.4592,4.77696 -5.8899,17.7515 -0.3529,10.6304 -0.647,12.37085 -2.8525,16.87865 -4.6497,9.5037 -12.6515,14.0868 -24.5948,14.0868 l -6.6001,0 0,-6.31001 z"
         id="path4251"
         inkscape:connector-curvature="0" />
      <path
         style="color:#000000;clip-rule:nonzero;display:inline;overflow:visible;visibility:visible;opacity:1;isolation:auto;mix-blend-mode:normal;color-interpolation:sRGB;color-interpolation-filters:linearRGB;solid-color:#000000;solid-opacity:1;fill:#e0ecb0;fill-opacity:1;fill-rule:evenodd;stroke:none;stroke-width:2;stroke-linecap:butt;stroke-linejoin:miter;stroke-miterlimit:4;stroke-dasharray:none;stroke-dashoffset:0;stroke-opacity:1;marker:none;color-rendering:auto;image-rendering:auto;shape-rendering:auto;text-rendering:auto;enable-background:accumulate"
         d="m 1367.1699,-594.96836 0,-6.31002 5.1833,-0.002 c 5.961,-0.002 10.4698,-1.93283 13.1979,-5.65294 1.5596,-2.12677 1.9071,-4.3439 2.3314,-14.8736 0.5673,-14.07623 2.0751,-18.5978 7.9102,-23.72108 5.3612,-4.70727 9.6615,-6.18898 18.0263,-6.21125 l 7.4368,-0.0198 0,6.31002 0,6.31001 -5.4978,0 c -6.3429,0 -10.8031,1.78626 -13.1362,5.26088 -1.2795,1.90555 -1.7198,5.00656 -2.1328,15.02131 -0.5861,14.21148 -1.5894,17.19968 -7.7773,23.16251 -5.2724,5.0807 -10.3284,6.99229 -18.5557,7.01561 l -6.9861,0.0198 0,-6.31002 z"
         id="path4253"
         inkscape:connector-curvature="0" />
      <path
         style="color:#000000;clip-rule:nonzero;display:inline;overflow:visible;visibility:visible;opacity:1;isolation:auto;mix-blend-mode:normal;color-interpolation:sRGB;color-interpolation-filters:linearRGB;solid-color:#000000;solid-opacity:1;fill:#c0bc7c;fill-opacity:1;fill-rule:evenodd;stroke:none;stroke-width:2;stroke-linecap:butt;stroke-linejoin:miter;stroke-miterlimit:4;stroke-dasharray:none;stroke-dashoffset:0;stroke-opacity:1;marker:none;color-rendering:auto;image-rendering:auto;shape-rendering:auto;text-rendering:auto;enable-background:accumulate"
         d="m 1516.9013,-594.87867 0,-6.39971 5.4534,0 c 5.9553,0 9.1159,-1.24274 12.5752,-4.94454 2.1262,-2.2752 2.2809,-3.13377 2.7357,-15.18462 0.4529,-11.99875 0.6442,-13.07028 3.155,-17.67621 2.7396,-5.02556 7.9164,-9.4856 13.3242,-11.47937 1.5786,-0.58201 6.0139,-1.08906 9.8562,-1.12679 l 6.9861,-0.0686 0,6.31001 0,6.31002 -5.6339,0.003 c -3.9932,0.002 -6.4729,0.5149 -8.5146,1.75982 -5.2666,3.21126 -6.0224,5.37804 -6.5869,18.88512 -0.5736,13.72356 -1.6315,17.04296 -7.2089,22.62038 -5.0351,5.03505 -9.2603,6.66758 -18.254,7.0529 l -7.8875,0.33793 0,-6.39971 z"
         id="path4255"
         inkscape:connector-curvature="0" />
      <path
         style="color:#000000;clip-rule:nonzero;display:inline;overflow:visible;visibility:visible;opacity:1;isolation:auto;mix-blend-mode:normal;color-interpolation:sRGB;color-interpolation-filters:linearRGB;solid-color:#000000;solid-opacity:1;fill:#a490b4;fill-opacity:1;fill-rule:evenodd;stroke:none;stroke-width:2;stroke-linecap:butt;stroke-linejoin:miter;stroke-miterlimit:4;stroke-dasharray:none;stroke-dashoffset:0;stroke-opacity:1;marker:none;color-rendering:auto;image-rendering:auto;shape-rendering:auto;text-rendering:auto;enable-background:accumulate"
         d="m 1660.2287,-594.86084 0,-6.41754 5.4376,0 c 2.9906,0 6.8127,-0.57458 8.4935,-1.27685 5.289,-2.20988 6.2862,-4.83075 6.8719,-18.05979 0.4172,-9.42546 0.919,-12.65828 2.5251,-16.26986 4.4706,-10.05284 12.2887,-14.85067 24.2224,-14.8648 l 7.4368,-0.009 0,6.31002 0,6.31001 -5.4375,0 c -6.8673,0 -11.149,1.77366 -13.4694,5.57969 -1.5347,2.5172 -1.8198,4.54443 -1.8226,12.96137 0,12.41107 -1.4426,17.62795 -6.419,23.28148 -5.51,6.25963 -9.5434,8.01387 -19.5005,8.48123 l -8.3383,0.39137 0,-6.41753 z"
         id="path4257"
         inkscape:connector-curvature="0" />
      <g
         transform="translate(0,84)"
         id="g4285">
        <path
           sodipodi:nodetypes="ccc"
           inkscape:connector-curvature="0"
           id="path4214"
           d="m 1100.9324,-780.20497 c 20.326,-65.38384 99.5629,-55.68007 231.1281,-63.35272 -56.5523,1.10826 -58.1839,22.81014 -74.2792,63.35272"
           style="fill:none;fill-rule:evenodd;stroke:#000000;stroke-width:3.13141513;stroke-linecap:butt;stroke-linejoin:miter;stroke-miterlimit:4;stroke-dasharray:none;stroke-opacity:1" />
        <path
           transform="matrix(0.15987377,0.09118859,0.09230317,-0.15794328,1300.6842,-916.2749)"
           inkscape:transform-center-y="3.532193"
           inkscape:transform-center-x="-1.2607163"
           d="m -516.39941,-1157.4399 -50.40089,-29.099 -50.40089,-29.0989 50.4009,-29.099 50.40089,-29.099 -10e-6,58.198 z"
           inkscape:randomized="0"
           inkscape:rounded="-3.46945e-18"
           inkscape:flatsided="false"
           sodipodi:arg2="2.0943952"
           sodipodi:arg1="1.0471976"
           sodipodi:r2="33.600594"
           sodipodi:r1="67.201187"
           sodipodi:cy="-1215.6378"
           sodipodi:cx="-550"
           sodipodi:sides="3"
           id="path4216"
           style="color:#000000;clip-rule:nonzero;display:inline;overflow:visible;visibility:visible;opacity:1;isolation:auto;mix-blend-mode:normal;color-interpolation:sRGB;color-interpolation-filters:linearRGB;solid-color:#000000;solid-opacity:1;fill:#000000;fill-opacity:1;fill-rule:nonzero;stroke:#000000;stroke-width:11.37734222;stroke-linecap:butt;stroke-linejoin:miter;stroke-miterlimit:4;stroke-dasharray:none;stroke-dashoffset:0;stroke-opacity:1;marker:none;color-rendering:auto;image-rendering:auto;shape-rendering:auto;text-rendering:auto;enable-background:accumulate"
           sodipodi:type="star" />
        <path
           sodipodi:type="star"
           style="color:#000000;clip-rule:nonzero;display:inline;overflow:visible;visibility:visible;opacity:1;isolation:auto;mix-blend-mode:normal;color-interpolation:sRGB;color-interpolation-filters:linearRGB;solid-color:#000000;solid-opacity:1;fill:#000000;fill-opacity:1;fill-rule:nonzero;stroke:#000000;stroke-width:11.37734222;stroke-linecap:butt;stroke-linejoin:miter;stroke-miterlimit:4;stroke-dasharray:none;stroke-dashoffset:0;stroke-opacity:1;marker:none;color-rendering:auto;image-rendering:auto;shape-rendering:auto;text-rendering:auto;enable-background:accumulate"
           id="path4219"
           sodipodi:sides="3"
           sodipodi:cx="-550"
           sodipodi:cy="-1215.6378"
           sodipodi:r1="67.201187"
           sodipodi:r2="33.600594"
           sodipodi:arg1="1.0471976"
           sodipodi:arg2="2.0943952"
           inkscape:flatsided="false"
           inkscape:rounded="-3.46945e-18"
           inkscape:randomized="0"
           d="m -516.39941,-1157.4399 -50.40089,-29.099 -50.40089,-29.0989 50.4009,-29.099 50.40089,-29.099 -10e-6,58.198 z"
           inkscape:transform-center-x="-1.2607164"
           inkscape:transform-center-y="3.532193"
           transform="matrix(0.15987377,0.09118859,0.09230317,-0.15794328,1458.4346,-916.2749)" />
        <path
           sodipodi:type="star"
           style="color:#000000;clip-rule:nonzero;display:inline;overflow:visible;visibility:visible;opacity:1;isolation:auto;mix-blend-mode:normal;color-interpolation:sRGB;color-interpolation-filters:linearRGB;solid-color:#000000;solid-opacity:1;fill:#000000;fill-opacity:1;fill-rule:nonzero;stroke:#000000;stroke-width:11.37734222;stroke-linecap:butt;stroke-linejoin:miter;stroke-miterlimit:4;stroke-dasharray:none;stroke-dashoffset:0;stroke-opacity:1;marker:none;color-rendering:auto;image-rendering:auto;shape-rendering:auto;text-rendering:auto;enable-background:accumulate"
           id="path4231"
           sodipodi:sides="3"
           sodipodi:cx="-550"
           sodipodi:cy="-1215.6378"
           sodipodi:r1="67.201187"
           sodipodi:r2="33.600594"
           sodipodi:arg1="1.0471976"
           sodipodi:arg2="2.0943952"
           inkscape:flatsided="false"
           inkscape:rounded="-3.46945e-18"
           inkscape:randomized="0"
           d="m -516.39941,-1157.4399 -50.40089,-29.099 -50.40089,-29.0989 50.4009,-29.099 50.40089,-29.099 -10e-6,58.198 z"
           inkscape:transform-center-x="-1.2607198"
           inkscape:transform-center-y="3.532193"
           transform="matrix(0.15987377,0.09118859,0.09230317,-0.15794328,1732.4694,-916.2749)" />
        <path
           transform="matrix(0.15987377,0.09118859,0.09230317,-0.15794328,1890.2198,-916.2749)"
           inkscape:transform-center-y="3.532193"
           inkscape:transform-center-x="-1.2607705"
           d="m -516.39941,-1157.4399 -50.40089,-29.099 -50.40089,-29.0989 50.4009,-29.099 50.40089,-29.099 -10e-6,58.198 z"
           inkscape:randomized="0"
           inkscape:rounded="-3.46945e-18"
           inkscape:flatsided="false"
           sodipodi:arg2="2.0943952"
           sodipodi:arg1="1.0471976"
           sodipodi:r2="33.600594"
           sodipodi:r1="67.201187"
           sodipodi:cy="-1215.6378"
           sodipodi:cx="-550"
           sodipodi:sides="3"
           id="path4233"
           style="color:#000000;clip-rule:nonzero;display:inline;overflow:visible;visibility:visible;opacity:1;isolation:auto;mix-blend-mode:normal;color-interpolation:sRGB;color-interpolation-filters:linearRGB;solid-color:#000000;solid-opacity:1;fill:#000000;fill-opacity:1;fill-rule:nonzero;stroke:#000000;stroke-width:11.37734222;stroke-linecap:butt;stroke-linejoin:miter;stroke-miterlimit:4;stroke-dasharray:none;stroke-dashoffset:0;stroke-opacity:1;marker:none;color-rendering:auto;image-rendering:auto;shape-rendering:auto;text-rendering:auto;enable-background:accumulate"
           sodipodi:type="star" />
        <path
           style="fill:none;fill-rule:evenodd;stroke:#000000;stroke-width:3.13141513;stroke-linecap:butt;stroke-linejoin:miter;stroke-miterlimit:4;stroke-dasharray:none;stroke-opacity:1"
           d="m 1690.6566,-780.20497 c -20.326,-65.38384 -99.5629,-55.68007 -231.1282,-63.35272 56.5524,1.10826 58.184,22.81014 74.2793,63.35272"
           id="path4259"
           inkscape:connector-curvature="0"
           sodipodi:nodetypes="ccc" />
      </g>
      <g
         inkscape:label="Layer 1"
         id="layer1-7"
         transform="matrix(2.5360789,0,0,2.5360789,493.26657,-2253.519)">
        <g
           id="g4180"
           style="fill:#000000;fill-rule:evenodd;stroke:none;stroke-width:1"
           transform="matrix(0.56420713,0,0,0.56420713,339.23445,559.72193)">
          <g
             id="g4182"
             transform="translate(-986,-742)"
             style="fill:#000000">
            <g
               style="fill:#000000"
               id="g4184"
               transform="translate(986,742)">
              <path
                 style="fill:#000000"
                 id="path4188-5"
                 d="M 30,50 C 18.972,50 10,41.028 10,30 c 0,-0.33 0.009,-0.664 0.025,-1 0.185,-0.001 0.359,-0.036 0.538,-0.057 0.151,-0.017 0.307,-0.018 0.454,-0.048 0.177,-0.037 0.34,-0.104 0.51,-0.159 0.142,-0.046 0.29,-0.076 0.425,-0.134 0.16,-0.068 0.304,-0.163 0.455,-0.247 0.131,-0.073 0.27,-0.132 0.393,-0.215 0.14,-0.095 0.26,-0.214 0.39,-0.322 0.116,-0.097 0.241,-0.182 0.348,-0.289 0.12,-0.121 0.218,-0.262 0.325,-0.394 0.094,-0.116 0.2,-0.222 0.284,-0.346 0.1,-0.147 0.172,-0.312 0.255,-0.469 0.068,-0.127 0.149,-0.246 0.205,-0.379 0.08,-0.188 0.128,-0.391 0.184,-0.59 0.033,-0.117 0.083,-0.226 0.107,-0.346 C 14.965,24.68 15,24.344 15,24 15,23.702 14.964,23.411 14.911,23.124 14.898,23.047 14.884,22.97 14.867,22.893 14.808,22.64 14.734,22.393 14.637,22.154 14.596,22.053 14.547,21.958 14.5,21.86 14.429,21.712 14.351,21.568 14.265,21.428 14.191,21.305 14.116,21.185 14.032,21.07 13.914,20.908 13.786,20.753 13.649,20.606 13.555,20.505 13.457,20.411 13.355,20.319 13.252,20.224 13.143,20.137 13.031,20.052 12.945,19.985 12.869,19.908 12.778,19.847 16.374,13.748 22.883,10 30,10 41.028,10 50,18.972 50,30 50,41.028 41.028,50 30,50 M 52,30 C 52,17.869 42.131,8 30,8 22.072,8 14.841,12.234 10.918,19.093 10.62,19.037 10.315,19 10,19 7.243,19 5,21.243 5,24 5,26.073 6.269,27.854 8.07,28.611 8.041,29.076 8,29.544 8,30 8,42.131 17.869,52 30,52 42.131,52 52,42.131 52,30"
                 inkscape:connector-curvature="0" />
              <path
                 style="fill:#000000"
                 id="path4190-3"
                 d="m 43.2881,54.6436 c -4.071,2.198 -8.646,3.356 -13.288,3.356 -15.44,0 -28,-12.56 -28,-28 0,-15.439 12.56,-28 28,-28 5.296,0 10.454,1.492 14.922,4.314 l 0.26,0.247 c -0.115,0.462 -0.182,0.943 -0.182,1.439 0,3.309 2.691,6 6,6 0.263,0 0.521,-0.022 0.775,-0.055 0.069,-0.009 0.136,-0.02 0.204,-0.032 0.219,-0.036 0.434,-0.083 0.645,-0.142 0.029,-0.008 0.06,-0.011 0.089,-0.02 l 0.255,0.244 c 3.292,4.714 5.032,10.247 5.032,16.005 0,7.001 -2.574,13.645 -7.269,18.811 -0.235,-0.154 -0.484,-0.28 -0.74,-0.392 -0.053,-0.022 -0.107,-0.039 -0.161,-0.06 -0.225,-0.089 -0.456,-0.161 -0.693,-0.216 -0.077,-0.018 -0.152,-0.036 -0.23,-0.051 -0.297,-0.054 -0.599,-0.092 -0.907,-0.092 -2.757,0 -5,2.244 -5,5 0,0.303 0.034,0.603 0.091,0.901 0.03,0.166 0.082,0.323 0.128,0.483 0.026,0.086 0.039,0.175 0.069,0.26 m 16.712,-24.644 c 0,-6.187 -1.877,-12.131 -5.424,-17.193 1.468,-1.095 2.424,-2.839 2.424,-4.807 0,-3.308 -2.691,-6 -6,-6 -2.068,0 -3.894,1.052 -4.974,2.648 -4.797,-3.04 -10.337,-4.648 -16.026,-4.648 -16.542,0 -30,13.458 -30,30 0,16.542 13.458,30 30,30 5.005,0 9.929,-1.27 14.311,-3.654 0.915,1.009 2.223,1.654 3.689,1.654 2.757,0 5,-2.243 5,-5 0,-1.031 -0.315,-1.991 -0.852,-2.788 5.066,-5.542 7.852,-12.682 7.852,-20.212"
                 inkscape:connector-curvature="0" />
            </g>
          </g>
        </g>
        <path
           inkscape:connector-curvature="0"
           style="fill:#000000"
           d="m 363.07286,583.10964 c 1.64873,-1.64873 1.64875,-4.31724 0,-5.96599 l -6.71633,-6.71632 c -0.99716,-0.99717 -2.36772,-1.38806 -3.66033,-1.17905 -0.0432,0.006 -0.0857,0.0112 -0.12771,0.0182 -0.0117,0.002 -0.0248,0.007 -0.0365,0.009 -0.65273,0.13194 -1.27922,0.41721 -1.82216,0.85976 -0.11095,0.0899 -0.21765,0.18574 -0.32156,0.28965 -1.64758,1.64758 -1.64875,4.32183 -2e-5,5.97056 l 6.71633,6.71633 c 1.64987,1.64761 4.3207,1.64528 5.96828,-0.002 z m -0.49943,-0.49943 c -1.36967,1.36967 -3.59744,1.36969 -4.96713,0 l -3.35932,-3.35932 4.96711,-4.96711 3.35932,3.35932 c 1.36969,1.36969 1.36967,3.59746 2e-5,4.96711 z m -10.48385,-6.65698 c -0.10043,0.13076 -0.30148,0.13602 -0.42876,0.0227 -0.0163,-0.014 -1.81286,-1.66965 -0.8963,-3.94311 0.014,-0.0397 0.0382,-0.0746 0.0662,-0.10262 0.0829,-0.0829 0.21392,-0.11514 0.32837,-0.0684 0.15764,0.0642 0.23183,0.24037 0.16876,0.39683 -0.76014,1.88344 0.72485,3.24948 0.74124,3.26354 0.12489,0.11322 0.13375,0.30605 0.0205,0.43104 z"
           id="path4220" />
        <ellipse
           style="color:#000000;clip-rule:nonzero;display:inline;overflow:visible;visibility:visible;opacity:1;isolation:auto;mix-blend-mode:normal;color-interpolation:sRGB;color-interpolation-filters:linearRGB;solid-color:#000000;solid-opacity:1;fill:#ff0000;fill-opacity:1;fill-rule:nonzero;stroke:none;stroke-width:2.00000024;stroke-linecap:butt;stroke-linejoin:miter;stroke-miterlimit:4;stroke-dasharray:6.00000072, 2.00000024;stroke-dashoffset:0;stroke-opacity:1;marker:none;color-rendering:auto;image-rendering:auto;shape-rendering:auto;text-rendering:auto;enable-background:accumulate"
           id="path4248"
           cx="344.8399"
           cy="573.29431"
           rx="2.3967094"
           ry="2.3335748" />
        <circle
           r="2.3335748"
           cy="589.61456"
           cx="366.30563"
           id="circle4250"
           style="color:#000000;clip-rule:nonzero;display:inline;overflow:visible;visibility:visible;opacity:1;isolation:auto;mix-blend-mode:normal;color-interpolation:sRGB;color-interpolation-filters:linearRGB;solid-color:#000000;solid-opacity:1;fill:#ff0000;fill-opacity:1;fill-rule:nonzero;stroke:none;stroke-width:2.00000024;stroke-linecap:butt;stroke-linejoin:miter;stroke-miterlimit:4;stroke-dasharray:6.00000072, 2.00000024;stroke-dashoffset:0;stroke-opacity:1;marker:none;color-rendering:auto;image-rendering:auto;shape-rendering:auto;text-rendering:auto;enable-background:accumulate" />
        <circle
           style="color:#000000;clip-rule:nonzero;display:inline;overflow:visible;visibility:visible;opacity:1;isolation:auto;mix-blend-mode:normal;color-interpolation:sRGB;color-interpolation-filters:linearRGB;solid-color:#000000;solid-opacity:1;fill:#ff0000;fill-opacity:1;fill-rule:nonzero;stroke:none;stroke-width:2.00000024;stroke-linecap:butt;stroke-linejoin:miter;stroke-miterlimit:4;stroke-dasharray:6.00000072, 2.00000024;stroke-dashoffset:0;stroke-opacity:1;marker:none;color-rendering:auto;image-rendering:auto;shape-rendering:auto;text-rendering:auto;enable-background:accumulate"
           id="circle4252"
           cx="367.95255"
           cy="564.29224"
           r="2.9017856" />
      </g>
    </g>
  </g>
</svg>
