<?xml version="1.0" encoding="UTF-8" standalone="no"?>
<svg
   xmlns:dc="http://purl.org/dc/elements/1.1/"
   xmlns:cc="http://creativecommons.org/ns#"
   xmlns:rdf="http://www.w3.org/1999/02/22-rdf-syntax-ns#"
   xmlns:svg="http://www.w3.org/2000/svg"
   xmlns="http://www.w3.org/2000/svg"
   xmlns:sodipodi="http://sodipodi.sourceforge.net/DTD/sodipodi-0.dtd"
   xmlns:inkscape="http://www.inkscape.org/namespaces/inkscape"
   preserveAspectRatio="xMidYMid"
   width="67.829681"
   height="52.306122"
   viewBox="0 0 67.829681 52.306122"
   id="svg2"
   version="1.1"
   inkscape:version="0.91 r13725"
   sodipodi:docname="logo_R.svg">
  <metadata
     id="metadata22">
    <rdf:RDF>
      <cc:Work
         rdf:about="">
        <dc:format>image/svg+xml</dc:format>
        <dc:type
           rdf:resource="http://purl.org/dc/dcmitype/StillImage" />
        <dc:title></dc:title>
      </cc:Work>
    </rdf:RDF>
  </metadata>
  <sodipodi:namedview
     pagecolor="#ffffff"
     bordercolor="#666666"
     borderopacity="1"
     objecttolerance="10"
     gridtolerance="10"
     guidetolerance="10"
     inkscape:pageopacity="0"
     inkscape:pageshadow="2"
     inkscape:window-width="640"
     inkscape:window-height="480"
     id="namedview20"
     showgrid="false"
     fit-margin-top="0"
     fit-margin-left="0"
     fit-margin-right="0"
     fit-margin-bottom="0"
     inkscape:zoom="1.2139037"
     inkscape:cx="-292.17032"
     inkscape:cy="-149.80787"
     inkscape:current-layer="svg2" />
  <defs
     id="defs4">
    <linearGradient
       id="gradientFill-1"
       x1="0.7414425"
       x2="590.86261"
       y1="3.6658268"
       y2="593.78699"
       gradientUnits="userSpaceOnUse"
       spreadMethod="pad"
       gradientTransform="matrix(0.11494196,0,0,0.07697987,-0.08523,-0.2822)">
      <stop
         offset="0"
         stop-color="rgb(203,206,208)"
         stop-opacity="1"
         id="stop7" />
      <stop
         offset="1"
         stop-color="rgb(132,131,139)"
         stop-opacity="1"
         id="stop9" />
    </linearGradient>
    <linearGradient
       id="gradientFill-2"
       x1="301.02603"
       x2="703.0675"
       y1="151.4006"
       y2="553.44208"
       gradientUnits="userSpaceOnUse"
       spreadMethod="pad"
       gradientTransform="matrix(0.09311939,0,0,0.09502015,-0.08523,-0.2822)">
      <stop
         offset="0"
         stop-color="rgb(39,109,195)"
         stop-opacity="1"
         id="stop12" />
      <stop
         offset="1"
         stop-color="rgb(22,92,170)"
         stop-opacity="1"
         id="stop14" />
    </linearGradient>
  </defs>
  <path
     d="M 33.91484,45.42745 C 15.18425,45.42745 0,35.25818 0,22.71377 0,10.16927 15.18425,0 33.91484,0 c 18.73069,0 33.91484,10.16927 33.91484,22.71377 0,12.54441 -15.18415,22.71368 -33.91484,22.71368 z M 39.1061,8.88029 c -14.23692,0 -25.77823,6.95216 -25.77823,15.52806 0,8.5759 11.54131,15.52806 25.77823,15.52806 14.23682,0 24.74341,-4.75301 24.74341,-15.52806 0,-10.77166 -10.50659,-15.52806 -24.74341,-15.52806 z"
     id="path16"
     style="fill:url(#gradientFill-1);fill-rule:evenodd"
     inkscape:connector-curvature="0" />
  <path
     d="m 51.65051,35.18029 c 0,0 2.05268,0.61942 3.24524,1.22285 0.41379,0.20939 1.12972,0.62722 1.64613,1.17581 0.50589,0.5373 0.75252,1.08175 0.75252,1.08175 l 8.08959,13.63942 -13.07503,0.006 -6.11422,-11.48176 c 0,0 -1.25201,-2.15117 -2.0224,-2.77491 -0.64265,-0.52028 -0.91666,-0.70549 -1.55207,-0.70549 -0.44229,0 -3.10659,0 -3.10659,0 l 0.002,14.95388 -11.57,0.005 0,-38.19865 23.23405,0 c 0,0 10.58231,0.19086 10.58231,10.25891 0,10.06806 -10.11198,10.81747 -10.11198,10.81747 z m -5.03248,-12.79057 -7.00436,-0.005 -0.003,6.49519 7.00784,-0.002 c 0,0 3.24524,-0.0101 3.24524,-3.30403 0,-3.36019 -3.24524,-3.18438 -3.24524,-3.18438 z"
     id="path18"
     style="fill:url(#gradientFill-2);fill-rule:evenodd"
     inkscape:connector-curvature="0" />
</svg>
